# Created by Kenney (www.kenney.nl)

mtllib blasterL.mtl

g blasterL

v -0.08 0.1008512 -0.215
v -0.08 0.1208512 -0.215
v -0.08 0.1008512 -0.095
v -0.08 0.1208512 -0.095
v -0.05 0.1008512 -0.095
v -0.05 0.1208512 -0.095
v -0.05 0.1008512 0.015
v -0.05 0.1208512 0.265
v -0.05 0.09085117 0.055
v -0.05 0.05085117 0.055
v -0.05 0.02085117 0.015
v -0.05 0.02085117 0.235
v -0.05 0.05085117 0.205
v -0.05 0.09085117 0.205
v -0.05 0.05085117 0.265
v -0.03 0.02085117 -0.1662094
v 0.03 0.02085117 -0.1662094
v -0.03 0.08085117 -0.215
v 0.03 0.08085117 -0.215
v 0.08 0.1008512 -0.095
v 0.05 0.1008512 -0.095
v 0.08 0.1208512 -0.095
v 0.05 0.1208512 -0.095
v 0.08 0.1208512 -0.215
v 0.08 0.1008512 -0.215
v -0.03 0.1208512 -0.185
v -0.03 0.1208512 0.055
v 0.03 0.1208512 -0.185
v 0.05 0.1208512 0.265
v 0.03 0.1208512 0.055
v 0.015 0.1208512 0.225
v -0.015 0.1208512 0.225
v -0.015 0.1208512 0.205
v 0.015 0.1208512 0.065
v 0.015 0.1208512 0.085
v -0.015 0.1208512 0.065
v 0.015 0.1208512 0.205
v -0.015 0.1208512 0.085
v -0.05 0.06085117 0.085
v -0.05 0.08085117 0.085
v -0.04 0.06085117 0.105
v -0.04 0.08085117 0.105
v 0.05 0.02085117 0.235
v 0.05 0.05085117 0.265
v -0.04 0.06085117 0.065
v -0.04 0.08085117 0.065
v 0.04 0.08085117 0.065
v 0.04 0.06085117 0.065
v 0.05 0.08085117 0.085
v 0.05 0.06085117 0.085
v 0.04 0.08085117 0.105
v 0.04 0.06085117 0.105
v 0.03 0.02085117 -0.145
v -0.03 0.02085117 -0.145
v 0.05 0.1008512 0.015
v 0.05 0.09085117 0.055
v 0.05 0.02085117 0.015
v 0.05 0.05085117 0.055
v 0.05 0.09085117 0.205
v 0.05 0.05085117 0.205
v -0.03 0.1008512 -0.215
v 0.03 0.1008512 -0.215
v -0.04 -0.1313349 0.1452419
v -0.04 -0.1061166 0.2578094
v -0.04 -0.1508512 0.1496141
v -0.04 -0.1256329 0.2621816
v 0.04 -0.1508512 0.1496141
v 0.04 -0.1313349 0.1452419
v 0.04 -0.1256329 0.2621816
v 0.04 -0.1061166 0.2578094
v 0.015 0.06085117 0.265
v -0.015 0.06085117 0.265
v 0.015 0.1108512 0.265
v -0.015 0.1108512 0.265
v -0.03 0.02085117 0.205
v 0.03 0.02085117 0.205
v -0.03 0.02085117 0.105
v 0.03 0.02085117 0.015
v 0.03 0.02085117 0.105
v 0.03 0.02085117 0.055
v 0.03 0.02085117 -0.045
v -0.03 0.02085117 0.055
v 0.03 0.02085117 0.03
v -0.03 0.02085117 -0.045
v -0.03 0.02085117 0.03
v -0.03 0.02085117 0.015
v -0.03 -0.1291488 0.155
v 0.03 -0.1291488 0.155
v -0.03 -0.1083027 0.2480513
v 0.03 -0.1083027 0.2480513
v -0.09 0.08085117 -0.295
v -0.09 0.02085117 -0.295
v -0.09 0.08085117 -0.245
v -0.09 0.02085117 -0.245
v -0.05 0.02085117 -0.245
v -0.05 0.08085117 -0.245
v -0.05 0.02085117 -0.295
v -0.05 0.08085117 -0.295
v 0.09 0.08085117 -0.245
v 0.09 0.08085117 -0.295
v 0.05 0.08085117 -0.245
v 0.05 0.08085117 -0.295
v 0.09 0.02085117 -0.295
v 0.09 0.02085117 -0.245
v 0.05 0.02085117 -0.295
v 0.05 0.02085117 -0.245
v 0.03 -0.1191488 -0.095
v 0.03 -0.09414882 -0.145
v -0.03 -0.1191488 -0.095
v -0.03 -0.09414882 -0.145
v -0.03 0.0008511717 -0.145
v 0.03 0.0008511717 -0.145
v 0.03 -0.1191488 -0.045
v -0.03 -0.1191488 -0.045
v 0.03 0.0008511717 -0.045
v -0.03 0.0008511717 -0.045
v -0.03 0.05085117 0.205
v -0.03 0.09085117 0.205
v -0.03 0.05085117 0.055
v -0.03 0.09085117 0.055
v 0.03 0.05085117 0.055
v 0.03 0.05085117 0.205
v 0.03 0.09085117 0.205
v 0.03 0.09085117 0.055
v -0.03 -0.004148826 0.1133333
v 0.03 -0.004148826 0.1133333
v -0.03 -0.02914883 0.1216667
v 0.03 -0.02914883 0.1216667
v -0.03 0.06085117 0.065
v -0.03 0.08085117 0.065
v -0.03 0.06085117 0.105
v -0.03 0.08085117 0.105
v 0.03 0.08085117 0.065
v 0.03 0.06085117 0.065
v 0.03 0.08085117 0.105
v 0.03 0.06085117 0.105
v -0.03 0.1008512 -0.295
v -0.1 0.1008512 -0.295
v -0.1 0.1008512 0.015
v -0.03 0.0008511717 0.015
v 0.1 0.1008512 -0.295
v 0.11 0.09085117 -0.295
v 0.1 0.1008512 0.015
v 0.11 0.09085117 0.015
v 0.03 0.0008511717 0.015
v 0.11 0.05085117 -0.295
v 0.11 0.05085117 0.015
v 0.11 0.01085117 0.015
v 0.1 0.0008511717 0.015
v -0.11 0.05085117 -0.295
v -0.11 0.09085117 -0.295
v -0.11 0.05085117 0.015
v -0.11 0.09085117 0.015
v -0.1 0.0008511717 0.015
v -0.11 0.01085117 0.015
v 0.03 0.1508512 -0.165
v 0.03 0.1508512 0.035
v -0.03 0.1508512 -0.165
v -0.03 0.1508512 0.035
v 0.03 0.1008512 -0.295
v 0.03 0.0008511717 -0.295
v -0.03 -0.02914883 0.03
v 0.03 -0.02914883 0.03
v -0.03 0.0008511717 -0.295
v 0.03 -0.004148826 0.055
v -0.03 -0.004148826 0.055
v 0.015 0.1508512 0.225
v 0.015 0.1308512 0.205
v 0.015 0.1308512 0.085
v 0.015 0.1508512 0.065
v -0.015 0.1308512 0.205
v -0.015 0.1508512 0.225
v -0.015 0.1308512 0.085
v -0.015 0.1508512 0.065
v 0.015 0.08512168 0.295
v -0.015 0.08512168 0.295
v 0.015 0.1108512 0.295
v -0.015 0.1108512 0.295
v 0.11 0.01085117 -0.295
v 0.1 0.0008511717 -0.295
v -0.1 0.0008511717 -0.295
v -0.11 0.01085117 -0.295

vn -1 0 0
vn 0 0 1
vn 0 -0.630909 -0.7758569
vn 1 0 0
vn 0 1 0
vn -0.8944272 0 0.4472136
vn 0 -0.7071068 0.7071068
vn -0.8944272 0 -0.4472136
vn 0.8944272 0 -0.4472136
vn 0.8944272 0 0.4472136
vn 0 -1 0
vn 0 0 -1
vn 0 -0.2186096 -0.9758124
vn 0 -0.9758124 0.2186096
vn 0 0.2186096 0.9758124
vn 0 0.9758124 -0.2186096
vn 0 -0.8944272 -0.4472136
vn 0 0.3162278 0.9486833
vn 0 -0.3162278 -0.9486833
vn 0.7071068 0.7071068 0
vn -0.7071068 0.7071068 0
vn 0 -0.7774375 0.6289602
vn 0.7071068 -0.7071068 0
vn -0.7071068 -0.7071068 0
vn 0 0.5547002 -0.8320503
vn 0 0.5547002 0.8320503

vt -8.464567 3.970519
vt -8.464567 4.75792
vt -3.740157 3.970519
vt -3.740157 4.75792
vt -1.968504 3.970519
vt -3.149606 3.970519
vt -1.968504 4.75792
vt -3.149606 4.75792
vt 0.5905512 3.970519
vt 10.43307 4.75792
vt 2.165354 3.576818
vt 2.165354 2.002015
vt 0.5905512 0.8209122
vt 9.251968 0.8209122
vt 8.070867 2.002015
vt 8.070867 3.576818
vt 10.43307 2.002015
vt 1.181102 4.765375
vt -1.181102 4.765375
vt 1.181102 7.810014
vt -1.181102 7.810014
vt 3.149606 3.970519
vt 1.968504 3.970519
vt 3.149606 4.75792
vt 1.968504 4.75792
vt 8.464567 4.75792
vt 8.464567 3.970519
vt 3.740157 4.75792
vt 3.740157 3.970519
vt 3.149606 -3.740157
vt 3.149606 -8.464567
vt 1.968504 -3.740157
vt 1.181102 -7.283464
vt 1.181102 2.165354
vt -1.181102 -7.283464
vt -3.149606 -8.464567
vt -3.149606 -3.740157
vt -1.968504 -3.740157
vt -1.968504 10.43307
vt -1.181102 2.165354
vt 1.968504 10.43307
vt -0.5905512 8.858268
vt 0.5905512 8.858268
vt 0.5905512 8.070867
vt -0.5905512 2.559055
vt -0.5905512 3.346457
vt 0.5905512 2.559055
vt -0.5905512 8.070867
vt 0.5905512 3.346457
vt 2.11282 2.395715
vt 2.11282 3.183117
vt 2.993162 2.395715
vt 2.993162 3.183117
vt 1.968504 7.122602
vt -1.968504 7.122602
vt 1.968504 8.792933
vt -1.968504 8.792933
vt 3.873504 2.395715
vt 3.873504 3.183117
vt -2.993162 3.183117
vt -2.993162 2.395715
vt -3.873504 3.183117
vt -3.873504 2.395715
vt -2.11282 3.183117
vt -2.11282 2.395715
vt 1.181102 -5.708662
vt 1.181102 -6.543676
vt -1.181102 -5.708662
vt -1.181102 -6.543676
vt -10.43307 4.75792
vt -0.5905512 3.970519
vt -2.165354 3.576818
vt -0.5905512 0.8209122
vt -2.165354 2.002015
vt -8.070867 3.576818
vt -9.251968 0.8209122
vt -8.070867 2.002015
vt -10.43307 2.002015
vt 1.181102 3.970519
vt -1.181102 3.970519
vt -1.181102 3.183117
vt 1.181102 3.183117
vt 5.718184 -5.170666
vt 10.14998 -4.177819
vt 5.890318 -5.939023
vt 10.32211 -4.946176
vt 1.574803 -7.083052
vt -1.574803 -7.083052
vt 1.574803 -6.29565
vt -1.574803 -6.29565
vt 1.574803 4.449518
vt -1.574803 4.449518
vt 1.574803 8.991162
vt -1.574803 8.991162
vt -5.718184 -5.170666
vt -5.890318 -5.939023
vt -10.14998 -4.177819
vt -10.32211 -4.946176
vt -1.968504 2.002015
vt 0.5905512 2.395715
vt 1.968504 2.002015
vt -0.5905512 2.395715
vt 0.5905512 4.364219
vt -0.5905512 4.364219
vt -1.181102 8.070867
vt -1.968504 9.251968
vt 1.181102 8.070867
vt -1.181102 4.133858
vt 1.968504 9.251968
vt 1.968504 0.5905512
vt 1.181102 0.5905512
vt 1.181102 4.133858
vt 1.181102 -1.771654
vt 1.181102 1.181102
vt -1.181102 -1.771654
vt -1.181102 1.181102
vt -1.968504 0.5905512
vt -1.181102 0.5905512
vt 1.181102 4.843218
vt -1.181102 4.843218
vt 1.181102 8.597461
vt -1.181102 8.597461
vt 11.61417 3.183117
vt 11.61417 0.8209122
vt 9.645669 3.183117
vt 9.645669 0.8209122
vt 3.543307 0.8209122
vt 1.968504 0.8209122
vt 3.543307 3.183117
vt 1.968504 3.183117
vt -11.61417 0.8209122
vt -11.61417 3.183117
vt -9.645669 0.8209122
vt -9.645669 3.183117
vt -1.968504 -9.645669
vt -1.968504 -11.61417
vt -3.543307 -9.645669
vt -3.543307 -11.61417
vt 1.968504 -11.61417
vt 1.968504 -9.645669
vt 3.543307 -11.61417
vt 3.543307 -9.645669
vt -1.968504 0.8209122
vt -3.543307 0.8209122
vt -1.968504 3.183117
vt -3.543307 3.183117
vt -1.181102 1.247465
vt -1.181102 3.448319
vt 1.181102 1.247465
vt 1.181102 3.448319
vt 1.181102 -3.706647
vt -1.181102 -3.706647
vt 1.181102 0.0335107
vt -1.181102 0.0335107
vt 1.181102 0.8209122
vt -1.181102 0.8209122
vt 1.181102 -3.740157
vt -1.181102 -3.740157
vt 5.708662 0.0335107
vt 5.708662 -3.706647
vt 1.771654 0.0335107
vt 3.740157 -4.690899
vt 1.771654 -4.690899
vt 1.181102 -4.690899
vt -1.181102 -4.690899
vt 1.181102 2.002015
vt 1.968504 3.576818
vt 1.181102 3.576818
vt -1.181102 2.002015
vt -1.181102 3.576818
vt -1.968504 3.576818
vt 1.181102 8.070866
vt 1.968504 2.165354
vt 1.968504 8.070866
vt -1.181102 8.070866
vt -1.968504 8.070866
vt -1.968504 2.165354
vt -1.968504 8.070867
vt 1.968504 8.070867
vt -5.708662 -3.706647
vt -5.708662 0.0335107
vt -3.740157 -4.690899
vt -1.771654 0.0335107
vt -1.771654 -4.690899
vt -1.181102 -7.133294
vt -1.181102 -1.773446
vt 1.181102 -7.133294
vt 1.181102 -1.773446
vt 1.181102 -1.565948
vt -1.181102 -1.565948
vt 1.181102 -0.528455
vt -1.181102 -0.528455
vt 4.133858 0.8209123
vt 8.070867 0.8209123
vt 4.461942 -0.1633396
vt 4.790026 -1.147592
vt 6.102362 -5.084599
vt 9.765799 -4.263886
vt 1.181102 -6.753411
vt -1.181102 -6.753411
vt 1.181102 -2.60344
vt -1.181102 -2.60344
vt -4.133858 0.8209123
vt -4.461942 -0.1633396
vt -8.070867 0.8209123
vt -4.790026 -1.147592
vt -6.102362 -5.084599
vt -9.765799 -4.263886
vt 2.559055 2.395715
vt 2.559055 3.183117
vt 4.133858 2.395715
vt 4.133858 3.183117
vt -2.559055 3.183117
vt -2.559055 2.395715
vt -4.133858 3.183117
vt -4.133858 2.395715
vt 1.181102 -11.61417
vt 1.181102 -8.464567
vt 3.937008 -11.61417
vt 3.937008 0.5905512
vt 1.771654 0.8209122
vt -0.5905512 0.0335107
vt 11.61417 0.02369564
vt 11.61417 -0.5330814
vt -0.5905512 0.02369564
vt -0.5905512 -0.5330814
vt -1.771654 0.8209122
vt 0.5905512 0.0335107
vt 11.61417 3.576818
vt 11.61417 2.002015
vt -0.5905512 3.576818
vt -0.5905512 2.002015
vt 3.937008 3.970519
vt 4.330709 3.576818
vt 4.330709 2.002015
vt 4.330709 0.4272115
vt 3.937008 0.0335107
vt -11.61417 2.002015
vt -11.61417 3.576818
vt 0.5905512 2.002015
vt 0.5905512 3.576818
vt -11.61417 -0.5330814
vt -11.61417 0.02369564
vt 0.5905512 -0.5330814
vt 0.5905512 0.02369564
vt -3.937008 0.0335107
vt -4.330709 0.4272115
vt -4.330709 2.002015
vt -4.330709 3.576818
vt -3.937008 3.970519
vt -1.181102 2.395715
vt -1.574803 2.395715
vt -1.181102 3.183117
vt -1.574803 3.183117
vt 7.283464 4.75792
vt -2.165354 4.75792
vt 6.496063 5.939023
vt -1.377953 5.939023
vt -7.283464 4.75792
vt -6.496063 5.939023
vt 2.165354 4.75792
vt 1.377953 5.939023
vt 1.181102 2.559055
vt 1.574803 2.559055
vt 1.574803 4.133858
vt 1.968504 3.346457
vt 1.574803 2.395715
vt 1.181102 2.395715
vt 1.574803 3.183117
vt 1.181102 3.183117
vt -1.181102 2.559055
vt -1.574803 4.133858
vt -1.574803 2.559055
vt -1.968504 3.346457
vt 1.574803 3.183117
vt -1.574803 3.183117
vt -1.181102 -8.464567
vt -1.181102 -11.61417
vt -3.937008 -11.61417
vt -3.937008 0.5905512
vt -11.61417 0.0335107
vt -11.61417 3.970519
vt -6.543676 0.8209122
vt -5.708662 0.8209122
vt -8.464567 3.183117
vt 1.181102 -1.147592
vt -1.181102 -1.147592
vt 1.181102 0.8209123
vt -1.181102 0.8209123
vt 1.181102 4.790026
vt -1.181102 4.790026
vt 11.61417 3.970519
vt 11.61417 0.0335107
vt 8.464567 3.183117
vt 6.543676 0.8209122
vt 5.708662 0.8209122
vt 1.181102 -0.1633396
vt -1.181102 -0.1633396
vt -1.181102 4.461942
vt 1.181102 4.461942
vt -8.858268 4.75792
vt -8.858268 5.939023
vt -8.070867 4.75792
vt -8.070867 5.151621
vt -3.346457 5.151621
vt -2.559055 5.939023
vt -2.559055 4.75792
vt -3.346457 4.75792
vt -2.165354 0.8209122
vt -2.165354 -0.1633396
vt 8.070867 4.75792
vt 8.070867 5.151621
vt 8.858268 4.75792
vt 8.858268 5.939023
vt 3.346457 5.151621
vt 2.559055 5.939023
vt 3.346457 4.75792
vt 2.559055 4.75792
vt 0.5905512 4.75792
vt -0.5905512 4.75792
vt 0.5905512 5.151621
vt -0.5905512 5.151621
vt 0.5905512 3.351247
vt -0.5905512 3.351247
vt -10.43307 4.364219
vt -10.43307 2.395715
vt -11.61417 4.364219
vt -11.61417 3.351247
vt 10.43307 2.395715
vt 10.43307 4.364219
vt 11.61417 3.351247
vt 11.61417 4.364219
vt -0.5905512 10.43307
vt -0.5905512 11.61417
vt 0.5905512 10.43307
vt 0.5905512 11.61417
vt 0.5905512 11.1371
vt 0.5905512 9.61787
vt -0.5905512 11.1371
vt -0.5905512 9.61787
vt 2.165354 -0.1633396
vt 2.165354 0.8209122
vt 11.61417 3.364358
vt 11.61417 2.807581
vt -0.5905512 3.364358
vt -0.5905512 2.807581
vt -11.61417 2.807581
vt -11.61417 3.364358
vt 0.5905512 2.807581
vt 0.5905512 3.364358
vt 1.181102 -0.08131037
vt -1.181102 -0.08131037
vt 1.181102 1.338198
vt -1.181102 1.338198
vt -1.181102 -6.496063
vt -1.181102 1.377953
vt 1.181102 -6.496063
vt 1.181102 1.377953
vt 1.181102 2.757706
vt -1.181102 2.757706
vt 1.181102 4.177215
vt -1.181102 4.177215
vt 0.5905512 5.939023
vt -0.5905512 5.939023
vt 11.61417 0.4272115
vt -0.5905512 0.4272115
vt -11.61417 0.4272115
vt 0.5905512 0.4272115

usemtl purple

f 3/3/1 2/2/1 1/1/1
f 2/2/1 3/3/1 4/4/1
f 6/7/2 3/6/2 5/5/2
f 3/6/2 6/7/2 4/8/2
f 7/9/1 6/4/1 5/3/1
f 6/4/1 7/9/1 8/10/1
f 8/10/1 7/9/1 9/11/1
f 9/11/1 7/9/1 10/12/1
f 11/13/1 10/12/1 7/9/1
f 10/12/1 11/13/1 12/14/1
f 10/12/1 12/14/1 13/15/1
f 8/10/1 9/11/1 14/16/1
f 13/15/1 12/14/1 14/16/1
f 8/10/1 14/16/1 12/14/1
f 8/10/1 12/14/1 15/17/1
f 18/20/3 17/19/3 16/18/3
f 17/19/3 18/20/3 19/21/3
f 22/24/2 21/23/2 20/22/2
f 21/23/2 22/24/2 23/25/2
f 22/28/4 25/27/4 24/26/4
f 25/27/4 22/28/4 20/29/4
f 6/32/5 2/31/5 4/30/5
f 26/33/5 2/31/5 6/32/5
f 26/33/5 6/32/5 27/34/5
f 28/35/5 2/31/5 26/33/5
f 28/35/5 24/36/5 2/31/5
f 24/36/5 28/35/5 22/37/5
f 22/37/5 28/35/5 23/38/5
f 23/38/5 28/35/5 29/39/5
f 30/40/5 29/39/5 28/35/5
f 8/41/5 27/34/5 6/32/5
f 29/39/5 31/42/5 8/41/5
f 31/42/5 29/39/5 30/40/5
f 8/41/5 32/43/5 27/34/5
f 8/41/5 31/42/5 32/43/5
f 33/44/5 27/34/5 32/43/5
f 31/42/5 30/40/5 34/45/5
f 27/34/5 34/45/5 30/40/5
f 31/42/5 34/45/5 35/46/5
f 34/45/5 27/34/5 36/47/5
f 31/42/5 35/46/5 37/48/5
f 36/47/5 27/34/5 38/49/5
f 38/49/5 27/34/5 33/44/5
f 38/49/5 37/48/5 35/46/5
f 37/48/5 38/49/5 33/44/5
f 41/52/6 40/51/6 39/50/6
f 40/51/6 41/52/6 42/53/6
f 44/56/7 12/55/7 43/54/7
f 12/55/7 44/56/7 15/57/7
f 39/58/8 46/53/8 45/52/8
f 46/53/8 39/58/8 40/59/8
f 49/62/9 48/61/9 47/60/9
f 48/61/9 49/62/9 50/63/9
f 51/60/10 50/65/10 49/64/10
f 50/65/10 51/60/10 52/61/10
f 54/68/11 17/67/11 53/66/11
f 17/67/11 54/68/11 16/69/11
f 29/70/4 21/29/4 23/28/4
f 21/29/4 29/70/4 55/71/4
f 55/71/4 29/70/4 56/72/4
f 55/71/4 56/72/4 57/73/4
f 58/74/4 57/73/4 56/72/4
f 56/72/4 29/70/4 59/75/4
f 57/73/4 58/74/4 43/76/4
f 59/75/4 29/70/4 60/77/4
f 43/76/4 58/74/4 60/77/4
f 60/77/4 29/70/4 43/76/4
f 43/76/4 29/70/4 44/78/4
f 2/24/12 61/79/12 1/22/12
f 61/79/12 2/24/12 62/80/12
f 62/80/12 2/24/12 25/6/12
f 25/6/12 2/24/12 24/8/12
f 19/81/12 61/79/12 62/80/12
f 61/79/12 19/81/12 18/82/12
f 65/85/1 64/84/1 63/83/1
f 64/84/1 65/85/1 66/86/1
f 63/89/13 67/88/13 65/87/13
f 67/88/13 63/89/13 68/90/13
f 69/93/14 65/92/14 67/91/14
f 65/92/14 69/93/14 66/94/14
f 69/87/15 64/90/15 66/88/15
f 64/90/15 69/87/15 70/89/15
f 70/97/4 67/96/4 68/95/4
f 67/96/4 70/97/4 69/98/4
f 44/101/2 71/100/2 15/99/2
f 71/100/2 44/101/2 29/25/2
f 72/102/2 15/99/2 71/100/2
f 71/100/2 29/25/2 73/103/2
f 15/99/2 72/102/2 8/7/2
f 73/103/2 29/25/2 74/104/2
f 8/7/2 72/102/2 74/104/2
f 8/7/2 74/104/2 29/25/2
f 76/107/11 12/106/11 75/105/11
f 75/105/11 12/106/11 77/108/11
f 76/107/11 43/109/11 12/106/11
f 43/109/11 76/107/11 57/110/11
f 76/107/11 78/111/11 57/110/11
f 78/111/11 76/107/11 79/112/11
f 78/111/11 79/112/11 80/34/11
f 80/34/11 79/112/11 77/108/11
f 78/111/11 80/34/11 81/113/11
f 80/34/11 77/108/11 82/40/11
f 77/108/11 12/106/11 82/40/11
f 83/114/11 81/113/11 80/34/11
f 81/113/11 83/114/11 84/115/11
f 82/40/11 12/106/11 85/116/11
f 84/115/11 83/114/11 85/116/11
f 11/117/11 85/116/11 12/106/11
f 84/115/11 85/116/11 86/118/11
f 86/118/11 85/116/11 11/117/11
f 88/120/16 63/91/16 87/119/16
f 87/119/16 63/91/16 89/121/16
f 88/120/16 68/92/16 63/91/16
f 64/93/16 89/121/16 63/91/16
f 68/92/16 88/120/16 70/94/16
f 64/93/16 90/122/16 89/121/16
f 70/94/16 90/122/16 64/93/16
f 90/122/16 70/94/16 88/120/16

usemtl dark

f 93/125/4 92/124/4 91/123/4
f 92/124/4 93/125/4 94/126/4
f 93/129/12 95/128/12 94/127/12
f 95/128/12 93/129/12 96/130/12
f 95/133/1 98/132/1 97/131/1
f 98/132/1 95/133/1 96/134/1
f 93/137/11 98/136/11 96/135/11
f 98/136/11 93/137/11 91/138/11
f 92/141/5 95/140/5 97/139/5
f 95/140/5 92/141/5 94/142/5
f 101/140/11 100/141/11 99/142/11
f 100/141/11 101/140/11 102/139/11
f 105/136/5 104/137/5 103/138/5
f 104/137/5 105/136/5 106/135/5
f 101/125/4 105/124/4 102/123/4
f 105/124/4 101/125/4 106/126/4
f 104/133/1 100/132/1 103/131/1
f 100/132/1 104/133/1 99/134/1
f 101/145/12 104/144/12 106/143/12
f 104/144/12 101/145/12 99/146/12
f 109/149/17 108/148/17 107/147/17
f 108/148/17 109/149/17 110/150/17
f 111/153/12 108/152/12 110/151/12
f 108/152/12 111/153/12 112/154/12
f 112/154/12 111/153/12 54/155/12
f 112/154/12 54/155/12 53/156/12
f 114/115/11 107/157/11 113/113/11
f 107/157/11 114/115/11 109/158/11
f 115/161/4 108/160/4 112/159/4
f 108/160/4 115/161/4 107/162/4
f 107/162/4 115/161/4 113/163/4
f 115/153/2 114/165/2 113/164/2
f 114/165/2 115/153/2 116/154/2
f 116/154/2 115/153/2 81/155/2
f 116/154/2 81/155/2 84/156/2
f 14/167/12 117/166/12 13/101/12
f 117/166/12 14/167/12 118/168/12
f 120/170/2 10/99/2 119/169/2
f 10/99/2 120/170/2 9/171/2
f 10/173/5 117/172/5 119/34/5
f 117/172/5 10/173/5 13/174/5
f 14/176/11 120/40/11 118/175/11
f 120/40/11 14/176/11 9/177/11
f 121/40/5 60/178/5 58/177/5
f 60/178/5 121/40/5 122/105/5
f 123/170/12 60/99/12 122/169/12
f 60/99/12 123/170/12 59/171/12
f 123/107/11 56/173/11 59/179/11
f 56/173/11 123/107/11 124/34/11
f 56/167/2 121/166/2 58/101/2
f 121/166/2 56/167/2 124/168/2
f 109/182/1 111/181/1 110/180/1
f 111/181/1 109/182/1 116/183/1
f 116/183/1 109/182/1 114/184/1
f 90/187/18 75/186/18 89/185/18
f 75/186/18 90/187/18 76/188/18
f 77/191/19 126/190/19 125/189/19
f 126/190/19 77/191/19 79/192/19
f 125/195/1 75/194/1 77/193/1
f 75/194/1 125/195/1 127/196/1
f 75/194/1 127/196/1 87/197/1
f 75/194/1 87/197/1 89/198/1
f 127/201/19 88/200/19 87/199/19
f 88/200/19 127/201/19 128/202/19
f 76/205/4 126/204/4 79/203/4
f 126/204/4 76/205/4 128/206/4
f 128/206/4 76/205/4 88/207/4
f 88/207/4 76/205/4 90/208/4
f 119/12/1 129/209/1 120/11/1
f 129/209/1 119/12/1 117/15/1
f 130/210/1 120/11/1 129/209/1
f 129/209/1 117/15/1 131/211/1
f 120/11/1 130/210/1 118/16/1
f 131/211/1 117/15/1 132/212/1
f 118/16/1 130/210/1 132/212/1
f 118/16/1 132/212/1 117/15/1
f 124/72/4 133/213/4 121/74/4
f 133/213/4 124/72/4 123/75/4
f 134/214/4 121/74/4 133/213/4
f 133/213/4 123/75/4 135/215/4
f 121/74/4 134/214/4 122/77/4
f 135/215/4 123/75/4 136/216/4
f 122/77/4 134/214/4 136/216/4
f 122/77/4 136/216/4 123/75/4

usemtl metal

f 138/219/5 61/218/5 137/217/5
f 61/218/5 138/219/5 1/31/5
f 1/31/5 138/219/5 3/30/5
f 139/220/5 3/30/5 138/219/5
f 7/110/5 3/30/5 139/220/5
f 3/30/5 7/110/5 5/32/5
f 86/73/4 116/161/4 84/221/4
f 116/161/4 86/73/4 140/222/4
f 143/225/20 142/224/20 141/223/20
f 142/224/20 143/225/20 144/226/20
f 145/228/1 81/227/1 115/183/1
f 81/227/1 145/228/1 78/13/1
f 144/231/4 146/230/4 142/229/4
f 146/230/4 144/231/4 147/232/4
f 55/23/2 144/234/2 143/233/2
f 55/23/2 147/235/2 144/234/2
f 57/128/2 147/235/2 55/23/2
f 147/235/2 57/128/2 148/236/2
f 78/155/2 148/236/2 57/128/2
f 145/153/2 148/236/2 78/155/2
f 148/236/2 145/153/2 149/237/2
f 152/240/1 151/239/1 150/238/1
f 151/239/1 152/240/1 153/241/1
f 153/244/21 138/243/21 151/242/21
f 138/243/21 153/244/21 139/245/21
f 86/156/2 154/246/2 140/154/2
f 154/246/2 86/156/2 155/247/2
f 155/247/2 86/156/2 11/143/2
f 155/247/2 11/143/2 152/248/2
f 152/248/2 11/143/2 7/5/2
f 152/248/2 7/5/2 153/249/2
f 153/249/2 7/5/2 139/250/2
f 132/253/2 41/252/2 131/251/2
f 41/252/2 132/253/2 42/254/2
f 156/257/4 30/256/4 28/255/4
f 30/256/4 156/257/4 157/258/4
f 27/261/1 158/260/1 26/259/1
f 158/260/1 27/261/1 159/262/1
f 46/264/5 132/112/5 130/263/5
f 132/112/5 46/264/5 42/265/5
f 42/265/5 46/264/5 40/266/5
f 46/269/12 129/268/12 45/267/12
f 129/268/12 46/269/12 130/270/12
f 41/272/11 129/271/11 131/108/11
f 129/271/11 41/272/11 45/273/11
f 45/273/11 41/272/11 39/274/11
f 52/265/11 48/264/11 50/266/11
f 48/264/11 52/265/11 136/112/11
f 48/264/11 136/112/11 134/263/11
f 47/273/5 51/272/5 49/274/5
f 51/272/5 47/273/5 133/271/5
f 51/272/5 133/271/5 135/108/5
f 51/275/2 136/268/2 52/267/2
f 136/268/2 51/275/2 135/82/2
f 133/81/12 48/252/12 134/251/12
f 48/252/12 133/81/12 47/276/12
f 25/36/5 160/278/5 62/277/5
f 25/36/5 141/279/5 160/278/5
f 141/279/5 25/36/5 143/280/5
f 20/37/5 143/280/5 25/36/5
f 143/280/5 20/37/5 55/117/5
f 55/117/5 20/37/5 21/38/5
f 112/181/1 160/282/1 161/281/1
f 160/282/1 112/181/1 17/283/1
f 17/283/1 112/181/1 53/284/1
f 160/282/1 17/283/1 19/285/1
f 62/1/1 160/282/1 19/285/1
f 85/288/12 163/287/12 162/286/12
f 163/287/12 85/288/12 83/289/12
f 127/291/11 163/114/11 128/290/11
f 163/114/11 127/291/11 162/116/11
f 61/27/4 164/293/4 137/292/4
f 164/293/4 61/27/4 18/294/4
f 164/293/4 18/294/4 16/295/4
f 164/293/4 16/295/4 111/159/4
f 111/159/4 16/295/4 54/296/4
f 80/155/2 166/298/2 165/297/2
f 166/298/2 80/155/2 82/156/2
f 165/40/5 125/300/5 126/299/5
f 125/300/5 165/40/5 166/34/5
f 37/303/4 167/302/4 31/301/4
f 168/304/4 167/302/4 37/303/4
f 169/305/4 167/302/4 168/304/4
f 169/305/4 170/306/4 167/302/4
f 170/306/4 169/305/4 34/307/4
f 35/308/4 34/307/4 169/305/4
f 80/309/4 163/287/4 83/289/4
f 163/287/4 80/309/4 165/310/4
f 163/287/4 165/310/4 128/206/4
f 128/206/4 165/310/4 126/204/4
f 32/313/1 171/312/1 33/311/1
f 172/314/1 171/312/1 32/313/1
f 172/314/1 173/315/1 171/312/1
f 174/316/1 173/315/1 172/314/1
f 174/316/1 38/317/1 173/315/1
f 38/317/1 174/316/1 36/318/1
f 169/321/2 38/320/2 35/319/2
f 38/320/2 169/321/2 173/322/2
f 177/103/2 176/324/2 175/323/2
f 176/324/2 177/103/2 178/104/2
f 177/327/4 71/326/4 73/325/4
f 71/326/4 177/327/4 175/328/4
f 176/331/1 74/330/1 72/329/1
f 74/330/1 176/331/1 178/332/1
f 74/335/5 177/334/5 73/333/5
f 177/334/5 74/335/5 178/336/5
f 171/48/11 169/49/11 168/44/11
f 169/49/11 171/48/11 173/46/11
f 176/339/22 71/338/22 175/337/22
f 71/338/22 176/339/22 72/340/22
f 171/321/12 37/320/12 33/319/12
f 37/320/12 171/321/12 168/322/12
f 166/341/1 127/196/1 125/195/1
f 166/341/1 162/286/1 127/196/1
f 162/286/1 166/341/1 85/288/1
f 82/342/1 85/288/1 166/341/1

usemtl darkMetal

f 142/249/12 160/80/12 141/250/12
f 100/146/12 160/80/12 142/249/12
f 146/248/12 100/146/12 142/249/12
f 102/145/12 160/80/12 100/146/12
f 146/248/12 103/144/12 100/146/12
f 179/247/12 103/144/12 146/248/12
f 105/143/12 160/80/12 102/145/12
f 103/144/12 179/247/12 105/143/12
f 105/143/12 161/154/12 160/80/12
f 180/246/12 105/143/12 179/247/12
f 161/154/12 105/143/12 180/246/12
f 145/111/11 180/219/11 149/220/11
f 180/219/11 145/111/11 161/217/11
f 161/217/11 145/111/11 115/113/11
f 161/217/11 115/113/11 112/66/11
f 148/345/23 180/344/23 179/343/23
f 180/344/23 148/345/23 149/346/23
f 154/349/24 182/348/24 181/347/24
f 182/348/24 154/349/24 155/350/24
f 140/118/11 111/68/11 116/115/11
f 111/68/11 140/118/11 164/278/11
f 164/278/11 140/118/11 154/280/11
f 164/278/11 154/280/11 181/279/11
f 182/236/12 164/153/12 181/237/12
f 164/153/12 182/236/12 97/128/12
f 164/153/12 97/128/12 137/79/12
f 97/128/12 182/236/12 92/127/12
f 150/235/12 92/127/12 182/236/12
f 92/127/12 150/235/12 91/129/12
f 91/129/12 150/235/12 151/234/12
f 137/79/12 97/128/12 98/130/12
f 91/129/12 151/234/12 98/130/12
f 137/79/12 98/130/12 151/234/12
f 137/79/12 151/234/12 138/233/12
f 158/353/25 28/352/25 26/351/25
f 28/352/25 158/353/25 156/354/25
f 158/357/5 157/356/5 156/355/5
f 157/356/5 158/357/5 159/358/5
f 157/361/26 27/360/26 30/359/26
f 27/360/26 157/361/26 159/362/26
f 167/363/2 32/320/2 31/319/2
f 32/320/2 167/363/2 172/364/2
f 174/363/12 34/320/12 36/319/12
f 34/320/12 174/363/12 170/364/12
f 174/47/5 167/42/5 170/45/5
f 167/42/5 174/47/5 172/43/5
f 147/232/4 179/365/4 146/230/4
f 179/365/4 147/232/4 148/366/4
f 155/368/1 150/238/1 182/367/1
f 150/238/1 155/368/1 152/240/1

usemtl _defaultMat

f 125/207/19 128/205/19 127/208/19
f 128/207/19 125/205/19 126/208/19

