# Created by Kenney (www.kenney.nl)

mtllib blasterH.mtl

g blasterH

v -0.05 0.07 -0.2658196
v -0.05 0.07 -0.2058197
v -0.05 -0.06 -0.2158196
v -0.05 -0.06 -0.1558197
v 0.03 -0.06 0.1468197
v 0.03 -0.06 0.04418034
v -0.03 -0.06 0.1468197
v -0.03 -0.06 0.04418034
v -0.015 0.07 -0.2058197
v -0.015 0.07 -0.2369702
v 0.015 0.07 -0.2369702
v 0.05 0.07 -0.2658196
v 0.05 0.07 -0.2058197
v 0.015 0.07 -0.2058197
v 0.04 -0.02 -0.04581966
v 0.05 -0.02 -0.02581966
v 0.04 0.03 -0.04581966
v 0.05 0.03 -0.02581966
v 0.04 -0.02 -0.00581966
v 0.04 0.03 -0.00581966
v -0.04 0.03 -0.04581966
v -0.05 0.03 -0.02581966
v -0.04 -0.02 -0.04581966
v -0.05 -0.02 -0.02581966
v -0.04 0.03 -0.00581966
v -0.04 -0.02 -0.00581966
v 0.015 0.07 -0.05697015
v -0.015 0.07 -0.05697015
v 0.015 0.08 -0.05697015
v -0.015 0.08 -0.05697015
v 0.015 0.08 -0.2369702
v -0.015 0.08 -0.2369702
v 0.015 0.12 0.00918034
v 0.015 0.12 0.1391803
v -0.015 0.12 0.00918034
v -0.015 0.12 0.1391803
v -0.015 0.07 -0.01581966
v 0.015 0.07 -0.01581966
v 0.015 0.095 0.1237295
v 0.015 0.095 0.02463119
v -0.015 0.095 0.1237295
v -0.015 0.095 0.02463119
v -0.03 0.02 0.04418034
v -0.03 0.02 0.2341803
v -0.05 0.02 0.04418034
v -0.03 0.02 0.2541803
v -0.05 0.02 0.2341803
v 0.03 0.02 0.2541803
v 0.03 0.02 0.2341803
v 0.03 0.02 0.04418034
v 0.05 0.02 0.2341803
v 0.05 0.02 0.04418034
v 0.03 -0.035 0.1368197
v -0.03 -0.035 0.1368197
v 0.03 -0.035 0.04418034
v -0.03 -0.035 0.04418034
v 0.015 0.07 0.01213119
v -0.015 0.07 0.01213119
v -0.015 0.07 0.1362295
v 0.015 0.07 0.1362295
v 0.015 0.07 0.1641803
v -0.015 0.07 0.1641803
v 0.05 -0.06 -0.1558197
v 0.05 -0.06 -0.2158196
v 0.03 0.05133309 -0.2586401
v 0.03 -0.04133309 -0.2229992
v -0.03 0.05133309 -0.2586401
v -0.03 -0.04133309 -0.2229992
v -0.03 0.07 0.04418034
v -0.03 0.07 0.2041803
v -0.03 0.045 0.2341803
v 0.03 0.07 0.2041803
v 0.03 0.045 0.2341803
v 0.05 -0.01 0.2341803
v 0.05 -0.01 0.04418034
v 0.05 -0.06 0.04418034
v 0.05 0.07 0.04418034
v 0.05 0.04 0.00418034
v 0.05 -0.03 0.00418034
v 0.05 -0.03 -0.1458197
v 0.05 0.04 -0.1458197
v 0.03 0.03 -0.04581966
v 0.03 0.03 -0.00581966
v 0.03 -0.02 -0.00581966
v 0.03 -0.02 -0.04581966
v -0.03 0.03 -0.04581966
v -0.03 0.03 -0.00581966
v -0.03 -0.02 -0.00581966
v -0.03 -0.02 -0.04581966
v 0.03 0.07 0.04418034
v -0.05 0.07 0.04418034
v -0.05 -0.01 0.2341803
v -0.03 -0.01 0.2541803
v 0.03 -0.01 0.2541803
v 0.03 -0.01 0.1268197
v -0.05 -0.01 0.04418034
v 0.03 -0.01 0.2218196
v -0.03 -0.01 0.1268197
v -0.03 -0.01 0.2218196
v -0.05 -0.06 0.04418034
v -0.05 -0.03 0.00418034
v -0.05 -0.03 -0.1458197
v -0.05 0.04 0.00418034
v -0.05 0.04 -0.1458197
v -0.03 0.05133309 -0.1929992
v -0.03 -0.04133309 -0.1929992
v 0.03 0.05133309 -0.1929992
v 0.03 -0.04133309 -0.1929992
v -0.01 -0.02133309 -0.1429992
v 0.01 -0.02133309 -0.1429992
v -0.01 0.03133309 -0.1429992
v 0.01 0.03133309 -0.1429992
v 0.01 0.03133309 -0.1929992
v -0.01 0.03133309 -0.1929992
v 0.03 -0.03 -0.1458197
v 0.03 -0.03 0.00418034
v 0.03 0.04 -0.1458197
v 0.03 0.04 0.00418034
v -0.03 -0.03 -0.1458197
v -0.03 0.04 -0.1458197
v -0.03 -0.03 0.00418034
v -0.03 0.04 0.00418034
v 0.01 -0.02133309 -0.1929992
v -0.01 -0.02133309 -0.1929992
v -0.03 -0.12 0.1708197
v 0.03 -0.12 0.1708197
v 0.03 -0.12 0.2658196
v -0.03 -0.12 0.2658196

vn -1 0 0
vn 0 -1 0
vn 0 1 0
vn 0.8944272 0 -0.4472136
vn 0.8944272 0 0.4472136
vn -0.8944272 0 -0.4472136
vn -0.8944272 0 0.4472136
vn 0 0 1
vn 1 0 0
vn 0 0 -1
vn 0 0.4472136 -0.8944272
vn 0 -0.4472136 0.8944272
vn 0 -0.4472136 -0.8944272
vn 0 0.4472136 0.8944272
vn 0 -0.3589791 -0.9333456
vn 0 0.7682213 0.6401844
vn -0.7071068 0 0.7071068
vn 0.7071068 0 0.7071068
vn 0 -0.3713907 -0.9284768
vn 0 0.3713907 0.9284768

vt -10.46534 2.755906
vt -8.103136 2.755906
vt -8.496837 -2.362205
vt -6.134632 -2.362205
vt 1.181102 5.780302
vt 1.181102 1.739383
vt -1.181102 5.780302
vt -1.181102 1.739383
vt 1.968504 -8.103136
vt 1.968504 -10.46534
vt 0.5905512 -8.103136
vt 0.5905512 -9.329534
vt -0.5905512 -9.329534
vt -1.968504 -10.46534
vt -1.968504 -8.103136
vt -0.5905512 -8.103136
vt 0.909205 -0.7874016
vt 0.02886324 -0.7874016
vt 0.909205 1.181102
vt 0.02886324 1.181102
vt 1.789547 -0.7874016
vt 1.789547 1.181102
vt -0.909205 1.181102
vt -0.02886324 1.181102
vt -0.909205 -0.7874016
vt -0.02886324 -0.7874016
vt -1.789547 1.181102
vt -1.789547 -0.7874016
vt 0.5905512 2.755906
vt -0.5905512 2.755906
vt 0.5905512 3.149606
vt -0.5905512 3.149606
vt 9.329534 3.149606
vt 9.329534 2.755906
vt 2.242919 3.149606
vt 8.103136 2.755906
vt 2.242919 2.755906
vt -9.329534 2.755906
vt -9.329534 3.149606
vt -2.242919 3.149606
vt -2.242919 2.755906
vt -0.5905512 -2.242919
vt 0.5905512 -2.242919
vt -0.5905512 0.3614307
vt -0.5905512 5.479541
vt 0.5905512 0.3614307
vt 0.5905512 5.479541
vt 0.5905512 2.186423
vt -0.5905512 2.186423
vt 0.5905512 4.387277
vt -0.5905512 4.387277
vt 0.5905512 4.87124
vt 0.5905512 0.9697319
vt -0.5905512 4.87124
vt -0.5905512 0.9697319
vt 1.181102 9.219698
vt 1.968504 1.739383
vt 1.181102 10.0071
vt 1.968504 9.219698
vt -1.181102 10.0071
vt -1.181102 9.219698
vt -1.968504 9.219698
vt -1.968504 1.739383
vt -1.181102 5.386601
vt 1.181102 5.386601
vt 0.5905512 2.678549
vt -0.5905512 2.678549
vt 0.5905512 3.778976
vt -0.5905512 3.778976
vt 0.5905512 0.06638674
vt -0.5905512 0.06638674
vt 0.5905512 1.166814
vt -0.5905512 1.166814
vt -1.739383 -1.377953
vt -1.739383 -2.362205
vt -5.386601 -1.377953
vt -5.780302 -2.362205
vt 0.5905512 -0.4257392
vt -0.5905512 -0.4257392
vt 0.5905512 1.775115
vt -0.5905512 1.775115
vt 1.968504 -6.134632
vt 1.968504 -8.496837
vt -1.968504 -6.134632
vt -1.968504 -8.496837
vt 1.739383 -2.362205
vt 1.739383 -1.377953
vt 5.780302 -2.362205
vt 5.386601 -1.377953
vt 10.46534 2.755906
vt 8.496837 -2.362205
vt 6.134632 -2.362205
vt -1.181102 5.541649
vt -1.181102 1.632835
vt -1.968504 6.329051
vt 1.181102 5.541649
vt -1.968504 0.8454334
vt 1.968504 6.329051
vt 1.181102 1.632835
vt 1.968504 0.8454334
vt 1.739383 2.755906
vt 8.038596 2.755906
vt 1.739383 0.7874016
vt 9.219698 0.7874016
vt 9.219698 1.771654
vt 1.181102 -4.411133
vt 1.181102 -5.948584
vt -1.181102 -4.411133
vt -1.181102 -5.948584
vt 1.181102 0.7874016
vt -1.181102 0.7874016
vt 1.181102 1.771654
vt -1.181102 1.771654
vt -9.219698 -0.3937008
vt -9.219698 0.7874016
vt -1.739383 -0.3937008
vt -1.739383 0.7874016
vt -1.739383 2.755906
vt -0.1645803 1.574803
vt -0.1645803 -1.181102
vt 5.740932 -1.181102
vt 5.740932 1.574803
vt -1.968504 -1.016522
vt -1.574803 -0.2291205
vt -1.574803 -1.803924
vt -1.181102 -1.803924
vt -1.181102 -0.2291205
vt 1.574803 -0.7874016
vt 1.181102 -0.7874016
vt 1.574803 1.181102
vt 1.181102 1.181102
vt 1.968504 -1.016522
vt 1.574803 -1.803924
vt 1.574803 -0.2291205
vt 1.181102 -0.2291205
vt 1.181102 -1.803924
vt -1.181102 -0.7874016
vt -1.574803 -0.7874016
vt -1.181102 1.181102
vt -1.574803 1.181102
vt -8.038596 2.755906
vt -9.219698 1.771654
vt -1.968504 0.7874016
vt -1.181102 2.755906
vt -1.968504 2.755906
vt 5.127369 -0.3937008
vt 5.127369 0.7874016
vt 6.240923 -0.3937008
vt 6.240923 0.7874016
vt -5.127369 0.7874016
vt -5.127369 -0.3937008
vt -6.240923 0.7874016
vt -6.240923 -0.3937008
vt 1.181102 -0.3937008
vt -1.181102 -0.3937008
vt 1.968504 0.7874016
vt 1.968504 2.755906
vt 1.181102 2.755906
vt 1.181102 4.9929
vt 1.181102 8.733057
vt -1.181102 4.9929
vt -1.181102 8.733057
vt 1.968504 -2.362205
vt 1.181102 -2.362205
vt 1.968504 -0.3937008
vt 1.181102 -1.377953
vt -1.181102 -1.377953
vt -1.968504 -0.3937008
vt -1.968504 -2.362205
vt -1.181102 -2.362205
vt 9.219698 -0.3937008
vt 1.739383 -0.3937008
vt 0.1645803 -1.181102
vt -5.740932 -1.181102
vt 0.1645803 1.574803
vt -5.740932 1.574803
vt -1.181102 8.038596
vt -0.5905512 -0.6228213
vt 0.5905512 -0.6228213
vt 0.5905512 0.4776059
vt -0.5905512 6.463793
vt -0.5905512 0.4776059
vt 1.181102 8.038596
vt -0.5905512 5.363366
vt 0.5905512 5.363366
vt 0.5905512 6.463793
vt 10.18268 2.020988
vt 8.779498 -1.627287
vt 7.598395 2.020988
vt 7.598395 -1.627287
vt -10.18268 2.020988
vt -7.598395 2.020988
vt -8.779498 -1.627287
vt -7.598395 -1.627287
vt 1.181102 -10.18268
vt -1.181102 -10.18268
vt 1.181102 -7.598395
vt -1.181102 -7.598395
vt -1.181102 -8.779498
vt 1.181102 -8.779498
vt 0.6228213 2.755906
vt -0.4776059 2.755906
vt -0.3614307 4.72441
vt -0.9697319 3.740157
vt -5.479541 4.72441
vt -4.87124 3.740157
vt -5.363366 2.755906
vt -6.463793 2.755906
vt -0.6228213 2.755906
vt 0.3614307 4.72441
vt 0.4776059 2.755906
vt 0.9697319 3.740157
vt 5.479541 4.72441
vt 4.87124 3.740157
vt 5.363366 2.755906
vt 6.463793 2.755906
vt 0.3937008 -0.8398854
vt -0.3937008 -0.8398854
vt 0.3937008 1.233586
vt -0.3937008 1.233586
vt 0.3937008 -5.629891
vt 0.3937008 -7.598395
vt -0.3937008 -5.629891
vt -0.3937008 -7.598395
vt -1.968504 -5.740932
vt -1.968504 0.1645803
vt -1.181102 -5.740932
vt -1.181102 0.1645803
vt 1.968504 -1.181102
vt 1.181102 -1.181102
vt 1.968504 1.574803
vt 1.181102 1.574803
vt 1.968504 0.1645803
vt 1.968504 -5.740932
vt 1.181102 0.1645803
vt 1.181102 -5.740932
vt -1.181102 -1.181102
vt -1.968504 -1.181102
vt -1.181102 1.574803
vt -1.968504 1.574803
vt -7.598395 -0.8398854
vt -7.598395 1.233586
vt -5.629891 -0.8398854
vt -5.629891 1.233586
vt 7.598395 1.233586
vt 7.598395 -0.8398854
vt 5.629891 1.233586
vt 5.629891 -0.8398854
vt 1.181102 -6.884174
vt -1.181102 -6.884174
vt 1.181102 -4.340002
vt -1.181102 -4.340002
vt 1.181102 -8.273234
vt -1.181102 -8.273234
vt 1.181102 -3.608918
vt -1.181102 -3.608918
vt 1.181102 10.46534
vt 1.181102 6.725183
vt -1.181102 10.46534
vt -1.181102 6.725183
vt 4.9929 -0.3937008
vt 8.733057 -0.3937008
vt 6.725183 -4.72441
vt 10.46534 -4.72441
vt 1.181102 -3.27993
vt -1.181102 -3.27993
vt 1.181102 -2.219858
vt -1.181102 -2.219858
vt -4.9929 -0.3937008
vt -8.733057 -0.3937008
vt -6.725183 -4.72441
vt -10.46534 -4.72441
vt -1.181102 2.020988
vt -1.181102 -1.627287
vt 1.181102 2.020988
vt 1.181102 -1.627287
vt 1.803924 -0.7874016
vt 0.2291205 -0.7874016
vt 1.803924 1.181102
vt 0.2291205 1.181102
vt -1.803924 1.181102
vt -0.2291205 1.181102
vt -1.803924 -0.7874016
vt -0.2291205 -0.7874016

usemtl metal

f 3/3/1 2/2/1 1/1/1
f 2/2/1 3/3/1 4/4/1
f 7/7/2 6/6/2 5/5/2
f 6/6/2 7/7/2 8/8/2
f 9/11/3 1/10/3 2/9/3
f 10/12/3 1/10/3 9/11/3
f 11/13/3 1/10/3 10/12/3
f 11/13/3 12/14/3 1/10/3
f 12/14/3 11/13/3 13/15/3
f 14/16/3 13/15/3 11/13/3
f 17/19/4 16/18/4 15/17/4
f 16/18/4 17/19/4 18/20/4
f 18/22/5 19/17/5 16/21/5
f 19/17/5 18/22/5 20/19/5
f 23/25/6 22/24/6 21/23/6
f 22/24/6 23/25/6 24/26/6
f 24/28/7 25/23/7 22/27/7
f 25/23/7 24/28/7 26/25/7
f 29/31/8 28/30/8 27/29/8
f 28/30/8 29/31/8 30/32/8
f 29/35/9 11/34/9 31/33/9
f 11/34/9 29/35/9 14/36/9
f 14/36/9 29/35/9 27/37/9
f 9/2/1 32/39/1 10/38/1
f 32/39/1 9/2/1 30/40/1
f 30/40/1 9/2/1 28/41/1
f 32/12/3 29/42/3 31/13/3
f 29/42/3 32/12/3 30/43/3
f 10/29/10 31/32/10 11/30/10
f 31/32/10 10/29/10 32/31/10
f 35/46/3 34/45/3 33/44/3
f 34/45/3 35/46/3 36/47/3
f 35/50/11 38/49/11 37/48/11
f 38/49/11 35/50/11 33/51/11
f 41/54/2 40/53/2 39/52/2
f 40/53/2 41/54/2 42/55/2
f 45/57/3 44/56/3 43/6/3
f 44/56/3 45/57/3 46/58/3
f 46/58/3 45/57/3 47/59/3
f 48/60/3 44/56/3 46/58/3
f 48/60/3 49/61/3 44/56/3
f 48/60/3 50/8/3 49/61/3
f 51/62/3 50/8/3 48/60/3
f 50/8/3 51/62/3 52/63/3
f 55/8/3 54/65/3 53/64/3
f 54/65/3 55/8/3 56/6/3
f 40/68/12 58/67/12 57/66/12
f 58/67/12 40/68/12 42/69/12
f 41/72/13 60/71/13 59/70/13
f 60/71/13 41/72/13 39/73/13
f 53/76/9 6/75/9 55/74/9
f 6/75/9 53/76/9 5/77/9
f 34/80/14 62/79/14 61/78/14
f 62/79/14 34/80/14 36/81/14
f 4/84/2 64/83/2 63/82/2
f 64/83/2 4/84/2 3/85/2
f 7/88/1 56/87/1 8/86/1
f 56/87/1 7/88/1 54/89/1
f 13/36/9 64/91/9 12/90/9
f 64/91/9 13/36/9 63/92/9
f 12/95/15 66/94/15 65/93/15
f 12/95/15 65/93/15 67/96/15
f 64/97/15 66/94/15 12/95/15
f 67/96/15 1/98/15 12/95/15
f 66/94/15 64/97/15 68/99/15
f 68/99/15 1/98/15 67/96/15
f 3/100/15 68/99/15 64/97/15
f 68/99/15 3/100/15 1/98/15

usemtl pink

f 43/103/1 70/102/1 69/101/1
f 70/102/1 43/103/1 44/104/1
f 70/102/1 44/104/1 71/105/1
f 70/108/16 73/107/16 72/106/16
f 73/107/16 70/108/16 71/109/16
f 73/112/8 44/111/8 49/110/8
f 44/111/8 73/112/8 71/113/8
f 75/116/9 51/115/9 74/114/9
f 51/115/9 75/116/9 52/117/9
f 76/75/9 52/117/9 75/116/9
f 76/75/9 77/118/9 52/117/9
f 76/75/9 78/119/9 77/118/9
f 76/75/9 79/120/9 78/119/9
f 76/75/9 80/121/9 79/120/9
f 80/121/9 76/75/9 63/92/9
f 81/122/9 77/118/9 78/119/9
f 63/92/9 81/122/9 80/121/9
f 81/122/9 13/36/9 77/118/9
f 13/36/9 81/122/9 63/92/9
f 17/125/3 20/124/3 18/123/3
f 20/124/3 17/125/3 82/126/3
f 20/124/3 82/126/3 83/127/3
f 20/130/8 84/129/8 19/128/8
f 84/129/8 20/130/8 83/131/8
f 19/134/2 15/133/2 16/132/2
f 15/133/2 19/134/2 84/135/2
f 15/133/2 84/135/2 85/136/2
f 82/139/10 15/138/10 85/137/10
f 15/138/10 82/139/10 17/140/10
f 21/133/3 87/135/3 86/136/3
f 87/135/3 21/133/3 25/134/3
f 25/134/3 21/133/3 22/132/3
f 87/139/8 26/138/8 88/137/8
f 26/138/8 87/139/8 25/140/8
f 21/130/10 89/129/10 23/128/10
f 89/129/10 21/130/10 86/131/10
f 88/127/2 23/125/2 89/126/2
f 23/125/2 88/127/2 26/124/2
f 23/125/2 26/124/2 24/123/2
f 72/141/9 50/117/9 90/118/9
f 50/117/9 72/141/9 49/115/9
f 49/115/9 72/141/9 73/142/9
f 69/144/8 45/143/8 43/111/8
f 45/143/8 69/144/8 91/145/8
f 93/148/17 47/147/17 92/146/17
f 47/147/17 93/148/17 46/149/17
f 48/152/18 74/151/18 51/150/18
f 74/151/18 48/152/18 94/153/18
f 48/110/8 93/155/8 94/154/8
f 93/155/8 48/110/8 46/111/8
f 77/157/8 50/110/8 52/156/8
f 50/110/8 77/157/8 90/158/8
f 94/58/2 75/57/2 74/59/2
f 75/57/2 94/58/2 95/159/2
f 75/57/2 95/159/2 96/63/2
f 95/159/2 94/58/2 97/160/2
f 96/63/2 95/159/2 98/161/2
f 93/60/2 97/160/2 94/58/2
f 96/63/2 98/161/2 92/62/2
f 97/160/2 93/60/2 99/162/2
f 99/162/2 93/60/2 92/62/2
f 99/162/2 92/62/2 98/161/2
f 75/165/8 6/164/8 76/163/8
f 6/164/8 75/165/8 55/166/8
f 55/166/8 75/165/8 56/167/8
f 96/168/8 56/167/8 75/165/8
f 100/169/8 56/167/8 96/168/8
f 56/167/8 100/169/8 8/170/8
f 45/103/1 92/171/1 47/104/1
f 45/103/1 96/172/1 92/171/1
f 91/101/1 96/172/1 45/103/1
f 91/101/1 100/86/1 96/172/1
f 91/101/1 101/173/1 100/86/1
f 102/174/1 100/86/1 101/173/1
f 91/101/1 103/175/1 101/173/1
f 102/174/1 4/4/1 100/86/1
f 91/101/1 104/176/1 103/175/1
f 4/4/1 102/174/1 104/176/1
f 2/2/1 104/176/1 91/101/1
f 104/176/1 2/2/1 4/4/1
f 14/16/3 77/63/3 13/15/3
f 77/63/3 14/16/3 90/8/3
f 90/8/3 14/16/3 72/177/3
f 72/177/3 14/16/3 38/178/3
f 38/178/3 14/16/3 27/42/3
f 38/178/3 27/42/3 37/179/3
f 37/179/3 27/42/3 28/43/3
f 37/179/3 28/43/3 58/180/3
f 61/181/3 72/177/3 38/178/3
f 61/181/3 38/178/3 57/182/3
f 72/177/3 61/181/3 70/183/3
f 61/181/3 57/182/3 60/184/3
f 58/180/3 60/184/3 57/182/3
f 60/184/3 58/180/3 59/185/3
f 58/180/3 28/43/3 59/185/3
f 70/183/3 61/181/3 62/186/3
f 59/185/3 28/43/3 62/186/3
f 70/183/3 62/186/3 28/43/3
f 70/183/3 28/43/3 69/6/3
f 28/43/3 2/9/3 69/6/3
f 69/6/3 2/9/3 91/57/3
f 2/9/3 28/43/3 9/11/3
f 6/6/2 63/82/2 76/57/2
f 63/82/2 6/6/2 4/84/2
f 4/84/2 6/6/2 8/8/2
f 4/84/2 8/8/2 100/63/2

usemtl darkMetal

f 105/189/9 68/188/9 67/187/9
f 68/188/9 105/189/9 106/190/9
f 66/193/1 107/192/1 65/191/1
f 107/192/1 66/193/1 108/194/1
f 107/197/2 67/196/2 65/195/2
f 67/196/2 107/197/2 105/198/2
f 68/200/3 108/198/3 66/199/3
f 108/198/3 68/200/3 106/197/3
f 33/203/9 57/202/9 38/201/9
f 57/202/9 33/203/9 40/204/9
f 40/204/9 33/203/9 34/205/9
f 40/204/9 34/205/9 39/206/9
f 39/206/9 34/205/9 60/207/9
f 60/207/9 34/205/9 61/208/9
f 58/211/1 35/210/1 37/209/1
f 35/210/1 58/211/1 42/212/1
f 35/210/1 42/212/1 36/213/1
f 36/213/1 42/212/1 41/214/1
f 36/213/1 41/214/1 59/215/1
f 36/213/1 59/215/1 62/216/1

usemtl dark

f 111/219/10 110/218/10 109/217/10
f 110/218/10 111/219/10 112/220/10
f 111/223/2 113/222/2 112/221/2
f 113/222/2 111/223/2 114/224/2
f 115/227/3 79/226/3 80/225/3
f 79/226/3 115/227/3 116/228/3
f 81/231/8 115/230/8 80/229/8
f 115/230/8 81/231/8 117/232/8
f 118/235/2 81/234/2 78/233/2
f 81/234/2 118/235/2 117/236/2
f 120/239/8 102/238/8 119/237/8
f 102/238/8 120/239/8 104/240/8
f 101/229/10 122/232/10 121/230/10
f 122/232/10 101/229/10 103/231/10
f 122/228/2 104/225/2 120/227/2
f 104/225/2 122/228/2 103/226/2
f 118/239/10 79/238/10 116/237/10
f 79/238/10 118/239/10 78/240/10
f 102/234/3 121/235/3 119/236/3
f 121/235/3 102/234/3 101/233/3
f 110/243/1 113/242/1 123/241/1
f 113/242/1 110/243/1 112/244/1
f 124/222/3 110/223/3 123/224/3
f 110/223/3 124/222/3 109/221/3
f 111/247/9 124/246/9 114/245/9
f 124/246/9 111/247/9 109/248/9
f 7/251/19 126/250/19 125/249/19
f 126/250/19 7/251/19 5/252/19
f 97/255/20 128/254/20 127/253/20
f 128/254/20 97/255/20 99/256/20
f 128/259/2 126/258/2 127/257/2
f 126/258/2 128/259/2 125/260/2
f 54/89/1 99/262/1 98/261/1
f 99/262/1 54/89/1 7/88/1
f 99/262/1 7/88/1 125/263/1
f 99/262/1 125/263/1 128/264/1
f 98/267/19 53/266/19 54/265/19
f 53/266/19 98/267/19 95/268/19
f 97/270/9 53/76/9 95/269/9
f 53/76/9 97/270/9 5/77/9
f 5/77/9 97/270/9 126/271/9
f 126/271/9 97/270/9 127/272/9
f 107/273/10 123/218/10 113/220/10
f 107/273/10 113/220/10 114/219/10
f 108/274/10 123/218/10 107/273/10
f 114/219/10 105/275/10 107/273/10
f 123/218/10 108/274/10 106/276/10
f 124/217/10 105/275/10 114/219/10
f 105/275/10 124/217/10 106/276/10
f 123/218/10 106/276/10 124/217/10
f 115/121/9 85/277/9 116/120/9
f 85/277/9 115/121/9 117/122/9
f 116/120/9 85/277/9 84/278/9
f 117/122/9 82/279/9 85/277/9
f 116/120/9 84/278/9 83/280/9
f 82/279/9 117/122/9 118/119/9
f 82/279/9 118/119/9 83/280/9
f 83/280/9 118/119/9 116/120/9
f 120/176/1 86/281/1 122/175/1
f 86/281/1 120/176/1 119/174/1
f 122/175/1 86/281/1 87/282/1
f 119/174/1 89/283/1 86/281/1
f 122/175/1 87/282/1 88/284/1
f 89/283/1 119/174/1 121/173/1
f 89/283/1 121/173/1 88/284/1
f 88/284/1 121/173/1 122/175/1

