# Created by Kenney (www.kenney.nl)

mtllib targetA.mtl

g targetA

v 0.025 0.085 0.1472243
v -0.025 0.085 0.1472243
v 0.025 0.1202082 0.1202082
v -0.025 0.1202082 0.1202082
v -0.025 3.72527E-10 -0.17
v -0.025 0.04399924 -0.1642074
v -0.025 -0.04399924 -0.1642074
v -0.025 -0.085 -0.1472243
v -0.025 0.085 -0.1472243
v -0.025 -0.1202082 -0.1202082
v -0.025 0.1202082 -0.1202082
v -0.025 3.725272E-10 -0.12
v -0.025 -0.03105828 -0.1159111
v -0.025 0.03105828 -0.1159111
v -0.025 -0.1472243 -0.085
v -0.025 -0.06 -0.1039231
v -0.025 -0.08485281 -0.08485281
v -0.025 0.1472243 -0.085
v -0.025 0.06 -0.1039231
v -0.025 0.08485281 -0.08485281
v -0.025 -0.1642074 -0.04399924
v -0.025 -0.1039231 -0.06
v -0.025 -0.1159111 -0.03105828
v -0.025 -0.17 -3.72531E-10
v -0.025 -0.12 -3.725308E-10
v -0.025 0.1642074 -0.04399924
v -0.025 0.1039231 -0.06
v -0.025 0.1159111 -0.03105828
v -0.025 -0.1642074 0.04399924
v -0.025 -0.1159111 0.03105828
v -0.025 -0.1039231 0.06
v -0.025 0.17 -3.72531E-10
v -0.025 0.12 -3.72531E-10
v -0.025 0.1159111 0.03105828
v -0.025 0.1642074 0.04399924
v -0.025 0.1039231 0.06
v -0.025 -0.1472243 0.085
v -0.025 -0.08485281 0.08485281
v -0.025 -0.06 0.1039231
v -0.025 0.1472243 0.085
v -0.025 0.08485281 0.08485281
v -0.025 0.06 0.1039231
v -0.025 -0.1202082 0.1202082
v -0.025 -0.03105828 0.1159111
v -0.025 0.03105828 0.1159111
v -0.025 3.725269E-10 0.12
v -0.025 -0.085 0.1472243
v -0.025 -0.04399924 0.1642074
v -0.025 0.04399924 0.1642074
v -0.025 3.725271E-10 0.17
v 0.025 0.04399924 0.1642074
v 0.025 -0.085 0.1472243
v 0.025 -0.04399924 0.1642074
v 0.025 -0.1642074 -0.04399924
v 0.025 -0.17 3.725312E-10
v 0.025 -0.04399924 -0.1642074
v 0.025 -3.725274E-10 -0.17
v 0.025 -3.725273E-10 0.17
v 0.025 0.1472243 0.085
v 0.025 0.04399924 -0.1642074
v 0.025 -0.1202082 -0.1202082
v 0.025 -0.085 -0.1472243
v 0.025 0.1642074 -0.04399924
v 0.025 0.17 3.725312E-10
v 0.025 0.085 -0.1472243
v 0.025 0.1202082 -0.1202082
v 0.025 0.1472243 -0.085
v 0.025 -0.1642074 0.04399924
v 0.025 -0.1472243 0.085
v 0.025 0.1642074 0.04399924
v -0.025 3.725272E-10 -0.07
v -0.025 0.01811733 -0.06761481
v -0.025 -0.01811733 -0.06761481
v -0.025 -0.035 -0.06062178
v -0.025 0.035 -0.06062178
v -0.025 0.04949747 -0.04949747
v -0.025 -0.04949747 -0.04949747
v -0.025 0.06062178 -0.035
v -0.025 -0.06062178 -0.035
v -0.025 -0.0676148 -0.01811733
v -0.025 3.72527E-10 -0.02
v -0.025 0.06761481 -0.01811733
v -0.025 -0.00517638 -0.01931852
v -0.025 0.005176381 -0.01931852
v -0.025 -0.01 -0.01732051
v -0.025 0.01 -0.01732051
v -0.025 -0.06999999 -3.725308E-10
v -0.025 0.07 -3.725308E-10
v -0.025 -0.01414214 -0.01414214
v -0.025 0.01414214 -0.01414214
v -0.025 -0.01732051 -0.01
v -0.025 -0.01931852 -0.005176381
v -0.025 -0.02 -3.725308E-10
v -0.025 0.01732051 -0.01
v -0.025 -0.0676148 0.01811733
v -0.025 0.01931852 -0.005176381
v -0.025 0.02 -3.72531E-10
v -0.025 0.01931852 0.00517638
v -0.025 -0.01931852 0.00517638
v -0.025 0.06761481 0.01811733
v -0.025 -0.01732051 0.01
v -0.025 0.01732051 0.01
v -0.025 -0.01414214 0.01414214
v -0.025 -0.01 0.01732051
v -0.025 -0.00517638 0.01931852
v -0.025 0.01414214 0.01414214
v -0.025 0.01 0.01732051
v -0.025 0.005176381 0.01931852
v -0.025 -0.06062178 0.035
v -0.025 0.06062178 0.035
v -0.025 3.725269E-10 0.02
v -0.025 -0.04949747 0.04949747
v -0.025 0.04949747 0.04949747
v -0.025 -0.035 0.06062178
v -0.025 0.035 0.06062178
v -0.025 0.01811733 0.0676148
v -0.025 -0.01811733 0.0676148
v -0.025 3.725269E-10 0.06999999
v 0.025 -0.1472243 -0.085
v 0.025 -0.1202082 0.1202082

vn 0 0.5 0.8660254
vn 0 0.7071068 0.7071068
vn -1 0 0
vn 0 0.258819 0.9659258
vn 0 -0.5 0.8660254
vn 0 -0.258819 0.9659258
vn 0 -0.9659258 -0.258819
vn 0 -1 0
vn 0 -0.258819 -0.9659258
vn 0 0 -1
vn 0 0 1
vn 0 0.8660254 0.5
vn 0 0.258819 -0.9659258
vn 0 -0.7071068 -0.7071068
vn 0 -0.5 -0.8660254
vn 0 0.9659258 -0.258819
vn 0 1 0
vn 0 0.5 -0.8660254
vn 0 0.7071068 -0.7071068
vn 0 0.8660254 -0.5
vn 0 -0.9659258 0.258819
vn 0 -0.8660254 0.5
vn 0 0.9659258 0.258819
vn 0 -0.8660254 -0.5
vn 0 -0.7071068 0.7071068
vn 1 0 0

vt 0.984252 -0.8736005
vt -0.984252 -0.8736005
vt 0.984252 0.8736005
vt -0.984252 0.8736005
vt -6.692914 -8.850751E-15
vt -6.464858 1.732253
vt -6.464858 -1.732253
vt -5.796233 -3.346457
vt -5.796233 3.346457
vt -4.732605 -4.732605
vt -4.732605 4.732605
vt -4.72441 -8.571445E-16
vt -4.563429 -1.222767
vt -4.563429 1.222767
vt -3.346457 -5.796233
vt -4.091459 -2.362205
vt -3.340662 -3.340662
vt -3.346457 5.796233
vt -4.091459 2.362205
vt -3.340662 3.340662
vt -1.732253 -6.464858
vt -2.362205 -4.091459
vt -1.222767 -4.563429
vt 2.895344E-15 -6.692914
vt 9.563675E-15 -4.72441
vt -1.732253 6.464858
vt -2.362205 4.091459
vt -1.222767 4.563429
vt 1.732253 -6.464858
vt 1.222767 -4.563429
vt 2.362205 -4.091459
vt -7.690872E-17 6.692914
vt 3.601872E-16 4.72441
vt 1.222767 4.563429
vt 1.732253 6.464858
vt 2.362205 4.091459
vt 3.346457 -5.796233
vt 3.340662 -3.340662
vt 4.091459 -2.362205
vt 3.346457 5.796233
vt 3.340662 3.340662
vt 4.091459 2.362205
vt 4.732605 -4.732605
vt 4.732605 4.732605
vt 4.563429 -1.222767
vt 4.563429 1.222767
vt 4.72441 -1.329164E-14
vt 5.796233 -3.346457
vt 5.796233 3.346457
vt 6.464858 -1.732253
vt 6.464858 1.732253
vt 6.692914 -5.298037E-15
vt -0.9842521 0.8736004
vt 0.9842519 0.8736006
vt -0.9842519 -0.8736006
vt 0.9842521 -0.8736004
vt -0.984252 -0.8736005
vt -0.984252 0.8736005
vt 0.984252 -0.8736005
vt 0.984252 0.8736005
vt 0.9842519 -0.8736005
vt -0.9842519 0.8736005
vt -0.9842519 -0.8736005
vt 0.9842519 0.8736005
vt -2.755906 -8.571445E-16
vt -2.662 0.7132809
vt -2.662 -0.7132809
vt -2.386684 -1.377953
vt -2.386684 1.377953
vt -1.94872 1.94872
vt -1.94872 -1.94872
vt -1.377953 2.386684
vt -1.377953 -2.386684
vt -0.7132809 -2.662
vt -0.7874016 -7.074393E-15
vt -0.7132809 2.662
vt -0.7605715 -0.2037945
vt -0.7605715 0.2037945
vt -0.6819097 -0.3937008
vt -0.6819097 0.3937008
vt 9.126579E-15 -2.755906
vt 7.902711E-15 2.755906
vt -0.556777 -0.556777
vt -0.556777 0.556777
vt -0.3937008 -0.6819097
vt -0.2037945 -0.7605715
vt 8.689483E-15 -0.7874016
vt -0.3937008 0.6819097
vt 0.7132809 -2.662
vt -0.2037945 0.7605715
vt 1.234379E-15 0.7874016
vt 0.2037945 0.7605715
vt 0.2037945 -0.7605715
vt 0.7132809 2.662
vt 0.3937008 -0.6819097
vt 0.3937008 0.6819097
vt 0.556777 -0.556777
vt 0.6819097 -0.3937008
vt 0.7605715 -0.2037945
vt 0.556777 0.556777
vt 0.6819097 0.3937008
vt 0.7605715 0.2037945
vt 1.377953 -2.386684
vt 1.377953 2.386684
vt 0.7874016 -1.417982E-14
vt 1.94872 -1.94872
vt 1.94872 1.94872
vt 2.386684 -1.377953
vt 2.386684 1.377953
vt 2.662 0.7132809
vt 2.662 -0.7132809
vt 2.755906 -1.329164E-14
vt 0.9842521 0.8736004
vt 0.9842519 -0.8736006
vt -0.9842519 0.8736006
vt -0.9842521 -0.8736004
vt 6.692914 -7.136461E-15
vt -4.210084E-15 6.692914
vt -7.182336E-15 -6.692914
vt -6.692914 -1.807391E-15

usemtl pink

f 3/3/2 2/2/1 1/1/1
f 2/2/1 3/3/2 4/4/2
f 7/7/3 6/6/3 5/5/3
f 6/6/3 7/7/3 8/8/3
f 6/6/3 8/8/3 9/9/3
f 9/9/3 8/8/3 10/10/3
f 9/9/3 10/10/3 11/11/3
f 11/11/3 10/10/3 12/12/3
f 12/12/3 10/10/3 13/13/3
f 14/14/3 11/11/3 12/12/3
f 13/13/3 10/10/3 15/15/3
f 13/13/3 15/15/3 16/16/3
f 16/16/3 15/15/3 17/17/3
f 11/11/3 14/14/3 18/18/3
f 18/18/3 14/14/3 19/19/3
f 18/18/3 19/19/3 20/20/3
f 17/17/3 15/15/3 21/21/3
f 17/17/3 21/21/3 22/22/3
f 22/22/3 21/21/3 23/23/3
f 23/23/3 21/21/3 24/24/3
f 23/23/3 24/24/3 25/25/3
f 18/18/3 20/20/3 26/26/3
f 26/26/3 20/20/3 27/27/3
f 26/26/3 27/27/3 28/28/3
f 25/25/3 24/24/3 29/29/3
f 25/25/3 29/29/3 30/30/3
f 30/30/3 29/29/3 31/31/3
f 26/26/3 28/28/3 32/32/3
f 32/32/3 28/28/3 33/33/3
f 32/32/3 33/33/3 34/34/3
f 32/32/3 34/34/3 35/35/3
f 35/35/3 34/34/3 36/36/3
f 31/31/3 29/29/3 37/37/3
f 31/31/3 37/37/3 38/38/3
f 38/38/3 37/37/3 39/39/3
f 35/35/3 36/36/3 40/40/3
f 40/40/3 36/36/3 41/41/3
f 40/40/3 41/41/3 42/42/3
f 39/39/3 37/37/3 43/43/3
f 40/40/3 42/42/3 4/44/3
f 39/39/3 43/43/3 44/45/3
f 4/44/3 42/42/3 45/46/3
f 44/45/3 43/43/3 46/47/3
f 4/44/3 45/46/3 46/47/3
f 4/44/3 46/47/3 43/43/3
f 4/44/3 43/43/3 47/48/3
f 4/44/3 47/48/3 2/49/3
f 2/49/3 47/48/3 48/50/3
f 2/49/3 48/50/3 49/51/3
f 49/51/3 48/50/3 50/52/3
f 1/3/1 49/2/4 51/1/4
f 49/2/4 1/3/1 2/4/1
f 53/3/6 47/2/5 52/1/5
f 47/2/5 53/3/6 48/4/6
f 55/55/8 21/54/7 54/53/7
f 21/54/7 55/55/8 24/56/8
f 7/59/9 57/58/10 56/57/9
f 57/58/10 7/59/9 5/60/10
f 58/3/11 48/2/6 53/1/6
f 48/2/6 58/3/11 50/4/11
f 40/4/12 3/1/2 59/3/12
f 3/1/2 40/4/12 4/2/2
f 51/3/4 50/2/11 58/1/11
f 50/2/11 51/3/4 49/4/4
f 5/59/10 60/58/13 57/57/10
f 60/58/13 5/59/10 6/60/13
f 10/59/14 62/58/15 61/57/14
f 62/58/15 10/59/14 8/60/15
f 8/59/15 56/58/9 62/57/15
f 56/58/9 8/59/15 7/60/9
f 26/56/16 64/53/17 63/55/16
f 64/53/17 26/56/16 32/54/17
f 6/59/13 65/58/18 60/57/13
f 65/58/18 6/59/13 9/60/18
f 9/59/18 66/58/19 65/57/18
f 66/58/19 9/59/18 11/60/19
f 11/59/19 67/58/20 66/57/19
f 67/58/20 11/59/19 18/60/20
f 69/3/22 29/2/21 68/61/21
f 29/2/21 69/3/22 37/62/22
f 35/62/23 59/61/12 70/3/23
f 59/61/12 35/62/23 40/2/12
f 18/59/20 63/58/16 67/63/20
f 63/58/16 18/59/20 26/64/16
f 73/67/3 72/66/3 71/65/3
f 72/66/3 73/67/3 74/68/3
f 72/66/3 74/68/3 75/69/3
f 75/69/3 74/68/3 76/70/3
f 76/70/3 74/68/3 77/71/3
f 76/70/3 77/71/3 78/72/3
f 78/72/3 77/71/3 79/73/3
f 78/72/3 79/73/3 80/74/3
f 78/72/3 80/74/3 81/75/3
f 81/75/3 82/76/3 78/72/3
f 81/75/3 80/74/3 83/77/3
f 82/76/3 81/75/3 84/78/3
f 83/77/3 80/74/3 85/79/3
f 82/76/3 84/78/3 86/80/3
f 85/79/3 80/74/3 87/81/3
f 82/76/3 86/80/3 88/82/3
f 85/79/3 87/81/3 89/83/3
f 88/82/3 86/80/3 90/84/3
f 89/83/3 87/81/3 91/85/3
f 91/85/3 87/81/3 92/86/3
f 92/86/3 87/81/3 93/87/3
f 88/82/3 90/84/3 94/88/3
f 93/87/3 87/81/3 95/89/3
f 88/82/3 94/88/3 96/90/3
f 88/82/3 96/90/3 97/91/3
f 88/82/3 97/91/3 98/92/3
f 93/87/3 95/89/3 99/93/3
f 88/82/3 98/92/3 100/94/3
f 99/93/3 95/89/3 101/95/3
f 100/94/3 98/92/3 102/96/3
f 101/95/3 95/89/3 103/97/3
f 103/97/3 95/89/3 104/98/3
f 104/98/3 95/89/3 105/99/3
f 100/94/3 102/96/3 106/100/3
f 100/94/3 106/100/3 107/101/3
f 100/94/3 107/101/3 108/102/3
f 105/99/3 95/89/3 109/103/3
f 100/94/3 108/102/3 110/104/3
f 105/99/3 109/103/3 111/105/3
f 110/104/3 108/102/3 111/105/3
f 110/104/3 111/105/3 109/103/3
f 110/104/3 109/103/3 112/106/3
f 110/104/3 112/106/3 113/107/3
f 113/107/3 112/106/3 114/108/3
f 113/107/3 114/108/3 115/109/3
f 115/109/3 114/108/3 116/110/3
f 116/110/3 114/108/3 117/111/3
f 116/110/3 117/111/3 118/112/3
f 54/63/7 15/64/24 119/58/24
f 15/64/24 54/63/7 21/59/7
f 120/3/25 37/2/22 69/1/22
f 37/2/22 120/3/25 43/4/25
f 119/57/24 10/60/14 61/58/14
f 10/60/14 119/57/24 15/59/24
f 32/115/17 70/114/23 64/113/17
f 70/114/23 32/115/17 35/116/23
f 68/113/21 24/116/8 55/114/8
f 24/116/8 68/113/21 29/115/21
f 52/3/5 43/2/25 120/1/25
f 43/2/25 52/3/5 47/4/5

usemtl _defaultMat

f 13/58/3 14/59/3 12/60/3
f 14/58/3 13/59/3 16/60/3
f 14/58/3 16/59/3 19/60/3
f 19/58/3 16/59/3 20/60/3
f 20/58/3 16/59/3 17/60/3
f 20/58/3 17/59/3 22/60/3
f 20/58/3 22/59/3 71/60/3
f 71/58/3 22/59/3 73/60/3
f 73/58/3 22/59/3 74/60/3
f 74/58/3 22/59/3 77/60/3
f 77/58/3 22/59/3 23/60/3
f 77/58/3 23/59/3 79/60/3
f 79/58/3 23/59/3 80/60/3
f 80/58/3 23/59/3 25/60/3
f 80/58/3 25/59/3 87/60/3
f 87/58/3 25/59/3 30/60/3
f 87/58/3 30/59/3 95/60/3
f 95/58/3 30/59/3 109/60/3
f 109/58/3 30/59/3 31/60/3
f 109/58/3 31/59/3 112/60/3
f 112/58/3 31/59/3 114/60/3
f 114/58/3 31/59/3 38/60/3
f 114/58/3 38/59/3 117/60/3
f 117/58/3 38/59/3 118/60/3
f 71/58/3 27/59/3 20/60/3
f 27/58/3 71/59/3 72/60/3
f 27/58/3 72/59/3 75/60/3
f 27/58/3 75/59/3 76/60/3
f 27/58/3 76/59/3 28/60/3
f 28/58/3 76/59/3 78/60/3
f 28/58/3 78/59/3 82/60/3
f 28/58/3 82/59/3 33/60/3
f 33/58/3 82/59/3 88/60/3
f 33/58/3 88/59/3 34/60/3
f 34/58/3 88/59/3 100/60/3
f 34/58/3 100/59/3 110/60/3
f 34/58/3 110/59/3 36/60/3
f 36/58/3 110/59/3 113/60/3
f 36/58/3 113/59/3 115/60/3
f 36/58/3 115/59/3 41/60/3
f 41/58/3 115/59/3 116/60/3
f 41/58/3 116/59/3 118/60/3
f 41/58/3 118/59/3 38/60/3
f 41/58/3 38/59/3 39/60/3
f 41/58/3 39/59/3 42/60/3
f 42/58/3 39/59/3 44/60/3
f 42/58/3 44/59/3 45/60/3
f 45/58/3 44/59/3 46/60/3
f 83/58/3 84/59/3 81/60/3
f 84/58/3 83/59/3 85/60/3
f 84/58/3 85/59/3 86/60/3
f 86/58/3 85/59/3 90/60/3
f 90/58/3 85/59/3 89/60/3
f 90/58/3 89/59/3 94/60/3
f 94/58/3 89/59/3 91/60/3
f 94/58/3 91/59/3 92/60/3
f 94/58/3 92/59/3 96/60/3
f 96/58/3 92/59/3 93/60/3
f 96/58/3 93/59/3 97/60/3
f 97/58/3 93/59/3 98/60/3
f 98/58/3 93/59/3 99/60/3
f 98/58/3 99/59/3 102/60/3
f 102/58/3 99/59/3 101/60/3
f 102/58/3 101/59/3 103/60/3
f 102/58/3 103/59/3 106/60/3
f 106/58/3 103/59/3 104/60/3
f 106/58/3 104/59/3 107/60/3
f 107/58/3 104/59/3 108/60/3
f 108/58/3 104/59/3 105/60/3
f 108/58/3 105/59/3 111/60/3

usemtl darkMetal

f 60/51/26 56/50/26 57/117/26
f 56/50/26 60/51/26 65/49/26
f 56/50/26 65/49/26 62/48/26
f 62/48/26 65/49/26 66/44/26
f 62/48/26 66/44/26 61/43/26
f 61/43/26 66/44/26 67/40/26
f 61/43/26 67/40/26 119/37/26
f 119/37/26 67/40/26 54/29/26
f 54/29/26 67/40/26 63/35/26
f 54/29/26 63/35/26 64/118/26
f 54/29/26 64/118/26 55/119/26
f 55/119/26 64/118/26 70/26/26
f 55/119/26 70/26/26 68/21/26
f 68/21/26 70/26/26 69/15/26
f 69/15/26 70/26/26 59/18/26
f 69/15/26 59/18/26 120/10/26
f 120/10/26 59/18/26 3/11/26
f 120/10/26 3/11/26 52/8/26
f 52/8/26 3/11/26 1/9/26
f 52/8/26 1/9/26 53/7/26
f 53/7/26 1/9/26 51/6/26
f 53/7/26 51/6/26 58/120/26

